<svg xmlns="http://www.w3.org/2000/svg" viewBox="0 0 160 160" width="160" height="160" role="img" aria-label="Basil">
  <defs>
    <linearGradient id="leaf" x1="0" y1="0" x2="1" y2="1">
      <stop offset="0" stop-color="#3a9d68"/>
      <stop offset="1" stop-color="#13603a"/>
    </linearGradient>
  </defs>
  <circle cx="80" cy="80" r="76" fill="#eef7f1"/>
  <!-- central stem -->
  <path d="M80 132 C80 108 80 92 80 64" fill="none" stroke="#13603a" stroke-width="5" stroke-linecap="round"/>
  <!-- lower left leaf -->
  <path d="M80 112 C58 110 40 96 38 74 C60 74 78 88 80 112 Z" fill="url(#leaf)"/>
  <!-- lower right leaf -->
  <path d="M80 112 C102 110 120 96 122 74 C100 74 82 88 80 112 Z" fill="url(#leaf)"/>
  <!-- upper left leaf -->
  <path d="M80 86 C62 84 48 72 47 54 C65 55 79 66 80 86 Z" fill="url(#leaf)"/>
  <!-- upper right leaf -->
  <path d="M80 86 C98 84 112 72 113 54 C95 55 81 66 80 86 Z" fill="url(#leaf)"/>
  <!-- crowning leaf -->
  <path d="M80 64 C72 50 72 36 80 24 C88 36 88 50 80 64 Z" fill="url(#leaf)"/>
  <!-- midribs -->
  <g stroke="#0d4c2e" stroke-width="2" stroke-linecap="round" fill="none" opacity="0.55">
    <path d="M80 108 C68 100 56 90 44 76"/>
    <path d="M80 108 C92 100 104 90 116 76"/>
    <path d="M80 83 C70 75 62 66 52 57"/>
    <path d="M80 83 C90 75 98 66 108 57"/>
    <path d="M80 60 C78 50 78 40 80 30"/>
  </g>
</svg>
